<?xml version="1.0" standalone="no"?>
<!DOCTYPE svg PUBLIC "-//W3C//DTD SVG 20010904//EN"
 "http://www.w3.org/TR/2001/REC-SVG-20010904/DTD/svg10.dtd">
<svg version="1.0" xmlns="http://www.w3.org/2000/svg"
 width="192.000000pt" height="192.000000pt" viewBox="0 0 192.000000 192.000000"
 preserveAspectRatio="xMidYMid meet">

<g transform="translate(0.000000,192.000000) scale(0.100000,-0.100000)"
fill="#000000" stroke="none">
<path d="M815 1910 c-437 -69 -776 -433 -811 -874 l-7 -81 64 60 c35 32 97 91
137 131 l72 71 0 197 0 196 198 0 197 0 95 96 c52 52 117 114 143 136 l49 41
136 -136 137 -137 200 -2 200 -3 5 -198 5 -198 138 -138 138 -137 -136 -132
c-132 -127 -155 -145 -155 -121 0 8 -5 7 -16 -2 -14 -12 -14 -14 5 -21 20 -7
21 -14 21 -195 l1 -188 45 49 c96 104 169 242 211 393 24 86 27 117 27 243 0
126 -3 157 -27 243 -27 100 -83 223 -139 305 -17 26 -72 88 -123 137 -128 126
-276 209 -446 250 -79 19 -283 27 -364 15z"/>
<path d="M1224 968 c-4 -7 -3 -8 4 -4 8 5 10 2 6 -8 -3 -9 -11 -13 -16 -10 -6
4 -5 -3 1 -15 10 -17 9 -22 -3 -27 -13 -5 -13 -10 -4 -27 8 -16 8 -22 -2 -25
-9 -3 -9 -6 1 -13 10 -6 27 5 56 33 42 41 42 41 25 70 -18 31 -34 38 -26 11 2
-10 -1 -8 -7 5 -13 24 -24 28 -35 10z"/>
<path d="M1561 928 c-1 -9 -5 -20 -11 -23 -5 -3 -7 0 -4 8 3 8 -1 14 -9 14
-12 0 -13 -6 -5 -29 6 -15 13 -30 18 -33 12 -8 28 39 19 60 -6 16 -8 17 -8 3z"/>
<path d="M5 855 c11 -87 39 -193 75 -276 34 -79 123 -220 164 -258 l26 -24 0
178 0 179 -68 65 c-38 36 -99 95 -136 131 l-68 65 7 -60z"/>
<path d="M1354 775 l-29 -36 -54 11 c-67 13 -136 13 -106 0 l20 -9 -20 -1
c-12 -1 -15 -4 -7 -7 7 -3 27 1 44 8 28 12 32 11 50 -11 17 -20 19 -34 13 -80
-4 -32 -13 -60 -22 -67 -14 -11 -11 -12 19 -11 19 1 40 -2 46 -6 8 -5 10 -2 6
8 -8 21 17 20 86 -4 55 -19 93 -26 55 -10 -19 8 -19 9 2 9 25 1 39 16 23 26
-5 3 -10 1 -10 -4 0 -6 -9 -11 -21 -11 -11 0 -17 5 -14 10 3 6 -4 10 -16 10
-43 0 -91 23 -86 42 3 9 0 19 -7 22 -6 2 -3 5 6 5 10 1 22 10 29 22 7 13 17
19 29 16 14 -4 17 1 16 22 0 14 -5 29 -11 33 -6 5 -6 8 2 8 6 0 9 9 6 20 -7
28 -15 25 -49 -15z"/>
<path d="M1500 763 c1 -21 15 -30 27 -18 10 10 9 14 -3 19 -20 8 -24 8 -24 -1z"/>
<path d="M1625 730 c-3 -6 1 -7 9 -4 18 7 21 14 7 14 -6 0 -13 -4 -16 -10z"/>
<path d="M1488 698 c-17 -17 -17 -18 7 -18 26 0 30 7 17 26 -4 6 -13 4 -24 -8z"/>
<path d="M844 628 c-11 -13 -29 -42 -39 -65 -10 -24 -22 -43 -27 -43 -5 0 -6
-4 -3 -10 4 -7 -3 -7 -20 0 -20 8 -30 7 -40 -4 -17 -16 -9 -26 20 -26 26 0 60
-34 50 -49 -9 -16 -25 -13 -25 3 0 24 -65 37 -72 14 -3 -7 -10 -8 -17 -4 -11
7 -11 10 0 17 11 7 11 9 -2 9 -8 0 -23 -16 -33 -36 l-17 -36 25 6 c15 4 26 1
28 -6 3 -7 22 -13 46 -13 25 0 42 -4 42 -11 0 -14 44 -44 65 -44 8 0 15 -7 15
-15 0 -23 16 -18 28 10 17 36 15 58 -3 51 -10 -3 -15 1 -15 13 0 10 -12 23
-26 30 -15 6 -24 14 -21 17 3 3 23 -3 45 -14 22 -11 44 -16 49 -12 4 4 19 11
33 15 19 5 21 4 10 -4 -8 -6 -11 -11 -6 -11 5 0 3 -7 -4 -15 -7 -9 -10 -18 -7
-21 3 -3 11 4 17 16 11 20 17 22 59 16 39 -5 49 -3 64 14 9 11 25 20 34 20 10
0 27 7 37 15 11 8 22 15 26 15 3 0 23 -36 44 -80 39 -79 48 -88 74 -71 10 6 3
27 -29 91 -26 52 -37 86 -30 88 6 2 11 10 11 18 0 8 7 14 15 14 21 0 19 19 -2
27 -10 3 -28 18 -40 32 l-21 26 -11 -28 c-6 -16 -11 -32 -11 -36 0 -4 -8 -18
-19 -30 -15 -17 -27 -20 -56 -17 -28 4 -35 2 -26 -7 16 -16 14 -26 -6 -22 -10
2 -22 4 -27 4 -4 1 -6 7 -3 14 2 7 -6 18 -19 24 -20 9 -26 8 -34 -5 -17 -30
-11 5 10 52 10 25 16 46 12 46 -4 0 0 5 8 10 11 7 -3 10 -47 10 -34 0 -65 5
-68 10 -9 15 -20 12 -41 -12z m410 -256 c3 -5 -1 -9 -9 -9 -8 0 -12 4 -9 9 3
4 7 8 9 8 2 0 6 -4 9 -8z"/>
<path d="M1360 540 c8 -5 20 -10 25 -10 6 0 3 5 -5 10 -8 5 -19 10 -25 10 -5
0 -3 -5 5 -10z"/>
<path d="M485 460 c-3 -5 -1 -10 4 -10 6 0 11 5 11 10 0 6 -2 10 -4 10 -3 0
-8 -4 -11 -10z"/>
<path d="M1335 440 c10 -11 20 -20 23 -20 3 0 -3 9 -13 20 -10 11 -20 20 -23
20 -3 0 3 -9 13 -20z"/>
<path d="M442 428 c-16 -16 -15 -38 2 -38 20 0 29 17 19 35 -7 12 -12 12 -21
3z"/>
<path d="M1138 393 c7 -3 16 -2 19 1 4 3 -2 6 -13 5 -11 0 -14 -3 -6 -6z"/>
<path d="M1013 361 c1 -16 5 -18 19 -10 20 11 15 29 -7 29 -8 0 -13 -9 -12
-19z"/>
<path d="M1106 353 l-19 -26 31 23 c35 26 38 30 20 30 -7 0 -22 -12 -32 -27z"/>
<path d="M960 355 c-10 -12 -10 -15 3 -15 8 0 17 7 21 15 3 8 2 15 -3 15 -5 0
-14 -7 -21 -15z"/>
<path d="M600 339 c0 -22 67 -70 107 -76 25 -4 34 -3 29 5 -3 6 -2 14 4 17 6
4 10 3 9 -2 -6 -24 15 -43 47 -43 40 0 42 9 11 38 -50 47 -207 93 -207 61z"/>
<path d="M1145 335 c-11 -8 -33 -16 -50 -18 -22 -3 -30 -9 -30 -23 0 -14 8
-20 30 -23 27 -3 28 -4 10 -12 -21 -10 -14 -9 55 7 20 4 22 3 10 -5 -13 -9
-13 -11 3 -11 26 0 20 -27 -8 -34 -16 -4 -22 -11 -19 -21 6 -16 -11 -21 -20
-6 -3 5 -15 11 -26 14 -11 3 -18 1 -14 -4 3 -5 13 -9 22 -9 13 0 14 -2 3 -9
-10 -6 -10 -10 -1 -16 8 -5 -14 -34 -66 -87 l-79 -80 75 7 c195 17 396 99 530
215 l45 39 -202 1 c-174 0 -203 2 -203 15 0 18 -7 18 -46 5 -16 -6 -42 -6 -58
-2 -27 7 -25 9 33 25 40 11 61 22 58 30 -5 17 -29 18 -52 2z"/>
<path d="M760 337 c0 -3 12 -12 26 -22 15 -9 23 -12 20 -6 -7 11 -46 35 -46
28z"/>
<path d="M326 239 c33 -36 177 -127 253 -159 88 -38 192 -65 283 -74 l66 -7
-132 130 -132 131 -179 0 -178 0 19 -21z"/>
<path d="M1070 248 c0 -12 7 -18 23 -17 15 0 17 2 7 6 -8 3 -18 11 -22 17 -5
7 -8 4 -8 -6z"/>
<path d="M1128 223 c7 -3 16 -2 19 1 4 3 -2 6 -13 5 -11 0 -14 -3 -6 -6z"/>
</g>
</svg>
